<svg id="Layer_1" data-name="Layer 1" xmlns="http://www.w3.org/2000/svg" viewBox="0 0 1080.38 412.98"><defs><style>.cls-1{fill:#2bb87e;}.cls-2{fill:#fff;}.cls-3{fill:#f7f7f7;}.cls-4{fill:#ffdf22;}.cls-13,.cls-5{fill:none;stroke-miterlimit:10;}.cls-5{stroke:#2bb87e;}.cls-6{font-size:143.28px;}.cls-10,.cls-6{fill:#9b998e;font-family:MyriadPro-Regular, Myriad Pro;}.cls-7{letter-spacing:-0.08em;}.cls-8{letter-spacing:0.26em;}.cls-9{letter-spacing:0.29em;}.cls-10{font-size:81.59px;}.cls-11{letter-spacing:-0.03em;}.cls-12{letter-spacing:0em;}.cls-13{stroke:#000;stroke-width:2px;}</style></defs><text x="-180.67" y="-277.93"/><polygon class="cls-1" points="101.02 219.79 116.57 243.05 166.14 317.3 213.04 176.69 263.3 228.93 284.43 200.91 284.43 95.64 24.67 95.64 24.67 341.51 101.02 219.79"/><rect class="cls-2" x="28.49" y="100.56" width="160.58" height="111.07" rx="6.38"/><rect class="cls-2" x="42.1" y="269.62" width="38.23" height="17.95" rx="4.51"/><rect class="cls-2" x="139.09" y="268.39" width="38.23" height="17.95" rx="4.51"/><rect class="cls-2" x="137.84" y="240.87" width="38.23" height="17.95" rx="4.51"/><rect class="cls-2" x="89.64" y="240.84" width="38.23" height="17.95" rx="4.51"/><rect class="cls-2" x="42.1" y="240.84" width="38.23" height="17.95" rx="4.51"/><rect class="cls-2" x="204.42" y="200.03" width="55.44" height="11.6"/><rect class="cls-1" x="209.8" y="204.11" width="44.43" height="2.9"/><rect class="cls-3" x="225.7" y="159.74" width="24.18" height="14.78" rx="3.59"/><rect class="cls-3" x="227.74" y="171.61" width="20.1" height="20.1"/><polygon class="cls-4" points="25.13 373.25 24.28 372.72 101.53 249.57 101.96 250.22 171.51 354.39 220.58 207.27 264.97 253.41 353.05 136.61 353.86 137.21 265.06 254.96 221.01 209.17 171.81 356.66 101.56 251.42 25.13 373.25"/><path class="cls-4" d="M210.13,674.69,180.67,656.2,281.73,495.1l15.55,23.26,49.57,74.25L393.75,452,444,504.24l75.35-99.91a18.12,18.12,0,0,1,25.37-3.56h0a18.13,18.13,0,0,1,3.56,25.38L447.36,560l-38.19-39.69-51.36,154L282.69,561.76,212.14,674.23A1.46,1.46,0,0,1,210.13,674.69Z" transform="translate(-180.67 -277.93)"/><polygon class="cls-4" points="401.37 168.72 310.26 104.08 398.91 75.66 401.37 168.72"/><ellipse class="cls-2" cx="237.11" cy="137.65" rx="13.61" ry="8.71"/><line class="cls-5" x1="229.6" y1="137.65" x2="244.62" y2="137.65"/><text class="cls-6" transform="translate(530.32 228.7)"><tspan class="cls-7">A</tspan><tspan x="76.66" y="0">T</tspan><tspan class="cls-8" x="147.87" y="0">	</tspan><tspan class="cls-9" x="214.92" y="0">	</tspan><tspan x="286.56" y="0">ONE</tspan></text><text class="cls-10" transform="translate(530.56 311.69)">MONI<tspan class="cls-11" x="195" y="0">T</tspan><tspan class="cls-12" x="233.35" y="0">OR</tspan></text><polygon class="cls-4" points="679.15 216.71 678.74 216.46 715.2 158.34 715.4 158.64 748.23 207.81 771.38 138.38 792.33 160.15 833.9 105.03 834.28 105.31 792.38 160.88 771.59 139.27 748.37 208.88 715.21 159.21 679.15 216.71"/><path class="cls-4" d="M861.86,505.73,848,497l47.69-76L903,432,926.38,467l22.14-66.37,23.72,24.66,35.55-47.15a8.56,8.56,0,0,1,12-1.68h0a8.56,8.56,0,0,1,1.68,12L973.82,451.6l-18-18.73-24.24,72.67-35.45-53.1-33.29,53.07A.69.69,0,0,1,861.86,505.73Z" transform="translate(-180.67 -277.93)"/><polygon class="cls-4" points="856.71 120.18 813.71 89.68 855.55 76.26 856.71 120.18"/><line class="cls-13" x1="469.87" x2="469.87" y2="412.98"/></svg>