<svg id="Layer_1" data-name="Layer 1" xmlns="http://www.w3.org/2000/svg" viewBox="0 0 850.78 681.11"><defs><style>.cls-1{fill:#2bb87e;}.cls-2{fill:#fff;}.cls-3{fill:#f7f7f7;}.cls-4{fill:#ffdf22;}.cls-5{fill:none;stroke:#2bb87e;stroke-miterlimit:10;}</style></defs><polygon class="cls-1" points="214.13 305.51 247.08 354.81 352.16 512.2 451.58 214.15 558.11 324.88 602.9 265.5 602.9 42.36 52.28 42.36 52.28 563.51 214.13 305.51"/><rect class="cls-2" x="60.39" y="52.77" width="340.38" height="235.44" rx="6.38"/><rect class="cls-2" x="89.24" y="411.14" width="81.03" height="38.04" rx="4.51"/><rect class="cls-2" x="294.83" y="408.52" width="81.03" height="38.04" rx="4.51"/><rect class="cls-2" x="292.18" y="350.19" width="81.03" height="38.04" rx="4.51"/><rect class="cls-2" x="190.01" y="350.13" width="81.03" height="38.04" rx="4.51"/><rect class="cls-2" x="89.24" y="350.13" width="81.03" height="38.04" rx="4.51"/><rect class="cls-2" x="433.31" y="263.63" width="117.51" height="24.58"/><rect class="cls-1" x="444.71" y="272.28" width="94.17" height="6.14"/><rect class="cls-3" x="478.41" y="178.21" width="51.25" height="31.33" rx="3.59"/><rect class="cls-3" x="482.73" y="203.38" width="42.61" height="42.61"/><polygon class="cls-4" points="53.28 630.8 51.47 629.67 215.21 368.63 216.13 370 363.54 590.81 467.56 278.97 561.65 376.77 748.36 129.19 750.07 130.47 561.84 380.05 468.46 282.99 364.19 595.62 215.27 372.56 53.28 630.8"/><path class="cls-4" d="M351.68,850l-62.44-39.18L503.46,469.28l32.95,49.29L641.49,676l99.42-298L847.44,488.65l159.7-211.78a38.42,38.42,0,0,1,53.8-7.53h0a38.41,38.41,0,0,1,7.53,53.79L854.53,606.81l-80.94-84.13L664.71,849.1,505.48,610.59,355.94,849A3.08,3.08,0,0,1,351.68,850Z" transform="translate(-289.24 -169.32)"/><polygon class="cls-4" points="850.78 197.26 657.66 60.24 845.57 0 850.78 197.26"/><ellipse class="cls-2" cx="502.6" cy="131.39" rx="28.85" ry="18.46"/><line class="cls-5" x1="486.68" y1="131.39" x2="518.51" y2="131.39"/></svg>